Coordinates
version=1
nRows=33
nColumns=38
inDegrees=no

Units are S.I. units (second, meters, Newtons, ...)
If the header above contains a line with 'inDegrees', this indicates whether rotational values are in degrees (yes) or radians (no).

endheader
time	pelvis_tilt	pelvis_list	pelvis_rotation	pelvis_tx	pelvis_ty	pelvis_tz	hip_flexion_r	hip_adduction_r	hip_rotation_r	knee_angle_r	ankle_angle_r	subtalar_angle_r	mtp_angle_r	hip_flexion_l	hip_adduction_l	hip_rotation_l	knee_angle_l	ankle_angle_l	subtalar_angle_l	mtp_angle_l	lumbar_extension	lumbar_bending	lumbar_rotation	arm_flex_r	arm_add_r	arm_rot_r	elbow_flex_r	pro_sup_r	wrist_flex_r	wrist_dev_r	arm_flex_l	arm_add_l	arm_rot_l	elbow_flex_l	pro_sup_l	wrist_flex_l	wrist_dev_l
3.98	-0.422988	-0.108646	0.00384893	0.6924	0.971391	-0.339708	1.31382	-0.0188568	-0.154752	-1.68237	0.372764	0.0999995	0.0182342	0.128176	-0.208732	-0.411456	-0.545839	0.105015	0.0999997	0.0688765	0.199074	0.1301	-0.339852	-0.584396	-0.460149	0.0896669	1.34825	1.38599	0.0999999	0.0289822	-0.11687	-0.669895	0.137282	2.29325	1.4674	0.0999997	-0.0276507
3.99	-0.428529	-0.106782	-0.000847945	0.695018	0.975607	-0.34025	1.31189	-0.0191106	-0.163703	-1.54233	0.383973	0.0999995	0.0182342	0.0944277	-0.209761	-0.42216	-0.548563	0.0169097	0.0999997	0.0688765	0.208916	0.138052	-0.34983	-0.614105	-0.465796	0.0594221	1.37655	1.38683	0.0999999	0.0289822	-0.11877	-0.662556	0.135102	2.3257	1.4758	0.0999997	-0.0276507
4	-0.434087	-0.100206	-0.0041478	0.697116	0.979022	-0.341084	1.30078	-0.0221556	-0.172548	-1.39304	0.396978	0.0999995	0.0182342	0.0716158	-0.204928	-0.423246	-0.571772	-0.0520572	0.0999997	0.0688765	0.217293	0.140763	-0.357181	-0.639328	-0.46808	0.0285137	1.4014	1.38797	0.0999999	0.0289822	-0.121631	-0.657185	0.139351	2.34917	1.48622	0.0999997	-0.0276507
4.01	-0.438412	-0.0893334	-0.00654478	0.698797	0.981653	-0.342123	1.28035	-0.0270467	-0.182084	-1.23702	0.412091	0.0999995	0.0182342	0.0576946	-0.194966	-0.415447	-0.614866	-0.100016	0.0999997	0.0688765	0.222959	0.138682	-0.361498	-0.658797	-0.467304	-0.00095864	1.42191	1.38784	0.0999999	0.0289822	-0.125675	-0.65345	0.149308	2.3616	1.49655	0.0999997	-0.0276507
4.02	-0.440499	-0.0751344	-0.00861169	0.700215	0.983486	-0.34326	1.25116	-0.0327937	-0.193421	-1.07823	0.428969	0.0999995	0.0182342	0.0505148	-0.181146	-0.400453	-0.676133	-0.127977	0.0999997	0.0688765	0.22514	0.132894	-0.362501	-0.671629	-0.464195	-0.0271115	1.4376	1.38545	0.0999999	0.0289822	-0.131274	-0.65079	0.1639	2.36148	1.50489	0.0999997	-0.0276507
4.03	-0.439777	-0.0588831	-0.010945	0.701538	0.984473	-0.344394	1.21471	-0.0385288	-0.207521	-0.922134	0.446489	0.0999995	0.0182342	0.0481993	-0.165018	-0.38059	-0.753104	-0.139004	0.0999997	0.0688765	0.223643	0.12486	-0.36002	-0.677389	-0.459775	-0.0485322	1.44839	1.38059	0.0999999	0.0289822	-0.138801	-0.648503	0.181818	2.348	1.50997	0.0999997	-0.0276507
4.04	-0.436211	-0.0419302	-0.0141082	0.702884	0.984548	-0.345447	1.17345	-0.0435894	-0.224773	-0.775424	0.462866	0.0999995	0.0182342	0.0494125	-0.148194	-0.358437	-0.842944	-0.137124	0.0999997	0.0688765	0.218841	0.116134	-0.353979	-0.676054	-0.455182	-0.0643794	1.45461	1.37387	0.0999999	0.0289822	-0.148517	-0.645855	0.201639	2.32105	1.51148	0.0999997	-0.0276507
4.05	-0.430281	-0.0255247	-0.0185728	0.704302	0.98365	-0.346357	1.13056	-0.0475052	-0.244684	-0.645293	0.476001	0.0999995	0.0182342	0.0535199	-0.132218	-0.336409	-0.942831	-0.126354	0.0999997	0.0688765	0.211562	0.108139	-0.344402	-0.667894	-0.451482	-0.0743434	1.45679	1.36651	0.0999999	0.0289822	-0.160516	-0.642195	0.221963	2.28124	1.51005	0.0999997	-0.0276507
4.06	-0.422855	-0.0107383	-0.0246673	0.705766	0.981746	-0.347065	1.08937	-0.0499042	-0.265802	-0.538479	0.48402	0.0999995	0.0182342	0.0606167	-0.118531	-0.31639	-1.05027	-0.110044	0.0999997	0.0688765	0.202878	0.102053	-0.33141	-0.653311	-0.449521	-0.0785202	1.45557	1.35996	0.0999999	0.0289822	-0.174685	-0.637034	0.241555	2.22969	1.50706	0.0999997	-0.0276507
4.07	-0.414974	0.00152413	-0.0325525	0.707184	0.978825	-0.347498	1.0529	-0.0503904	-0.285912	-0.46026	0.485886	0.0999995	0.0182342	0.0714111	-0.108469	-0.299489	-1.16325	-0.0906101	0.0999997	0.0688765	0.193838	0.0987824	-0.315212	-0.632686	-0.449826	-0.0772679	1.45153	1.35546	0.0999999	0.0289822	-0.190695	-0.630081	0.259477	2.16788	1.5042	0.0999997	-0.0276507
4.08	-0.407621	0.0104867	-0.0422262	0.708411	0.974901	-0.347577	1.0232	-0.0484371	-0.302408	-0.413697	0.48193	0.0999995	0.0182342	0.087007	-0.103277	-0.285971	-1.2803	-0.0695174	0.0999997	0.0688765	0.185219	0.0990101	-0.296082	-0.606278	-0.452569	-0.0710968	1.44512	1.35376	0.0999999	0.0289822	-0.208014	-0.621238	0.275174	2.0974	1.50304	0.0999997	-0.0276507
4.09	-0.401524	0.0154996	-0.0535355	0.709296	0.97	-0.347232	1.00116	-0.0434098	-0.312869	-0.399294	0.474156	0.0999995	0.0182342	0.108666	-0.104001	-0.275286	-1.40028	-0.0474897	0.0999997	0.0688765	0.177358	0.103223	-0.274332	-0.574198	-0.457579	-0.0606134	1.43667	1.35502	0.0999999	0.0289822	-0.225952	-0.610584	0.288517	2.01984	1.50468	0.0999997	-0.0276507
4.1	-0.397054	0.0160993	-0.0661806	0.709703	0.964186	-0.346438	0.986417	-0.0347584	-0.315758	-0.415093	0.46619	0.0999995	0.0182342	0.137621	-0.111262	-0.266164	-1.52216	-0.024852	0.0999997	0.0688765	0.17016	0.111674	-0.250324	-0.536468	-0.464394	-0.0465109	1.42641	1.35892	0.0999999	0.0289822	-0.243752	-0.598351	0.299773	1.9367	1.50953	0.0999997	-0.0276507
4.11	-0.394276	0.0121375	-0.0797127	0.709537	0.957579	-0.345248	0.9776	-0.0222571	-0.310777	-0.456996	0.462712	0.0999995	0.0182342	0.174966	-0.125002	-0.256841	-1.64469	-0.00182472	0.0999997	0.0688765	0.163255	0.124282	-0.224479	-0.493139	-0.472325	-0.0295819	1.41458	1.36494	0.0999999	0.0289822	-0.260716	-0.584927	0.309537	1.84946	1.51731	0.0999997	-0.0276507
4.12	-0.393053	0.00391532	-0.0935347	0.708736	0.950461	-0.343791	0.972599	-0.00622302	-0.298886	-0.519158	0.468418	0.0999995	0.0182342	0.221603	-0.144277	-0.245396	-1.76617	0.0212802	0.0999997	0.0688765	0.156269	0.140494	-0.197303	-0.444449	-0.480527	-0.0107274	1.40151	1.37252	0.0999999	0.0289822	-0.27637	-0.57086	0.318614	1.75974	1.52723	0.0999997	-0.0276507
4.13	-0.393201	-0.00773924	-0.106928	0.707282	0.943326	-0.342244	0.968873	0.0123645	-0.282015	-0.59444	0.48676	0.0999995	0.0182342	0.278163	-0.167205	-0.230149	-1.88427	0.044008	0.0999997	0.0688765	0.149087	0.159194	-0.169397	-0.390983	-0.488085	0.00904689	1.38775	1.38128	0.0999999	0.0289822	-0.290611	-0.556861	0.32789	1.66944	1.5382	0.0999997	-0.0276507
4.14	-0.394585	-0.0214754	-0.119096	0.705262	0.936685	-0.340777	0.963724	0.0318955	-0.262555	-0.675043	0.518956	0.0999995	0.0182342	0.344873	-0.191127	-0.210068	-1.99606	0.0658468	0.0999997	0.0688765	0.141996	0.178713	-0.141446	-0.333786	-0.494108	0.0286483	1.37408	1.39111	0.0999999	0.0289822	-0.303807	-0.543792	0.3382	1.58095	1.5491	0.0999997	-0.0276507
4.15	-0.39713	-0.0355381	-0.129216	0.702815	0.930843	-0.339513	0.954548	0.0503088	-0.242796	-0.753313	0.563627	0.0999995	0.0182342	0.421344	-0.212955	-0.185075	-2.09817	0.0863791	0.0999997	0.0688765	0.135657	0.196987	-0.114177	-0.274406	-0.497822	0.0469247	1.36164	1.40206	0.0999999	0.0289822	-0.316803	-0.532622	0.350202	1.49711	1.55887	0.0999997	-0.0276507
4.16	-0.400744	-0.0479955	-0.136524	0.700084	0.925936	-0.338521	0.939064	0.065342	-0.224626	-0.822591	0.617149	0.0999995	0.0182342	0.506385	-0.229635	-0.156158	-2.18709	0.105352	0.0999997	0.0688765	0.13092	0.211815	-0.0882733	-0.214829	-0.498673	0.0627119	1.35189	1.41433	0.0999999	0.0289822	-0.330808	-0.524338	0.364259	1.42111	1.56658	0.0999997	-0.0276507
4.17	-0.405205	-0.0570362	-0.140414	0.697282	0.922096	-0.337834	0.915469	0.074841	-0.209435	-0.877845	0.67435	0.0999995	0.0182342	0.597898	-0.238629	-0.125261	-2.25949	0.122655	0.0999997	0.0688765	0.128565	0.221176	-0.0642756	-0.157311	-0.496393	0.0749222	1.34647	1.4281	0.0999999	0.0289822	-0.347209	-0.519813	0.380331	1.35618	1.57139	0.0999997	-0.0276507
4.18	-0.410105	-0.0612496	-0.140562	0.694715	0.919539	-0.337459	0.882534	0.0771186	-0.198119	-0.915909	0.729228	0.0999995	0.0182342	0.692975	-0.238363	-0.0949866	-2.31261	0.138319	0.0999997	0.0688765	0.129088	0.223535	-0.0424561	-0.10413	-0.491051	0.0826792	1.34705	1.4434	0.0999999	0.0289822	-0.367358	-0.519637	0.397871	1.30514	1.57261	0.0999997	-0.0276507
4.19	-0.41491	-0.059827	-0.137024	0.692695	0.918486	-0.337366	0.839646	0.0712776	-0.191118	-0.935379	0.775576	0.0999995	0.0182342	0.78817	-0.22853	-0.0681442	-2.34455	0.152541	0.0999997	0.0688765	0.132589	0.21808	-0.0227331	-0.0573159	-0.48303	0.0854728	1.35499	1.45998	0.0999999	0.0289822	-0.392397	-0.523976	0.415769	1.27	1.56979	0.0999997	-0.0276507
4.2	-0.419076	-0.0526529	-0.130286	0.691486	0.919077	-0.337511	0.786845	0.0574066	-0.188459	-0.936325	0.807557	0.0999995	0.0182342	0.879913	-0.210166	-0.0472512	-2.35443	0.165707	0.0999997	0.0688765	0.13879	0.204813	-0.00466406	-0.0184198	-0.472956	0.0832849	1.37113	1.47729	0.0999999	0.0289822	-0.423132	-0.532493	0.432364	1.25164	1.56291	0.0999997	-0.0276507
4.21	-0.422185	-0.0402868	-0.121208	0.691283	0.92134	-0.337837	0.724878	0.0365993	-0.189784	-0.919956	0.82019	0.0999995	0.0182342	0.964973	-0.185456	-0.0340803	-2.34246	0.178333	0.0999997	0.0688765	0.147176	0.184516	0.0124668	0.0116382	-0.461593	0.0766359	1.39563	1.49446	0.0999999	0.0289822	-0.459978	-0.54436	0.445569	1.24967	1.5525	0.0999997	-0.0276507
4.22	-0.424049	-0.023844	-0.110884	0.692183	0.925211	-0.338273	0.655241	0.0107752	-0.194434	-0.8884	0.809825	0.0999995	0.0182342	1.04086	-0.157331	-0.0293834	-2.30981	0.19095	0.0999997	0.0688765	0.157181	0.158612	0.0294842	0.0326177	-0.449729	0.0665271	1.42791	1.51028	0.0999999	0.0289822	-0.50292	-0.558361	0.453119	1.26255	1.53956	0.0999997	-0.0276507
4.23	-0.424768	-0.00482184	-0.100447	0.694174	0.930522	-0.338725	0.580167	-0.0176714	-0.201587	-0.844605	0.774616	0.0999995	0.0182342	1.10604	-0.128925	-0.0328555	-2.25837	0.203952	0.0999997	0.0688765	0.168331	0.128954	0.0471235	0.0449171	-0.438082	0.0542839	1.46677	1.52343	0.0999999	0.0289822	-0.551499	-0.573051	0.452919	1.28785	1.52532	0.0999997	-0.0276507
4.24	-0.424699	0.0151277	-0.0908664	0.697151	0.936998	-0.339103	0.502478	-0.0462707	-0.210365	-0.792305	0.714881	0.0999995	0.0182342	1.15997	-0.103035	-0.0433321	-2.1904	0.217508	0.0999997	0.0688765	0.180296	0.0975802	0.0658516	0.0494685	-0.427238	0.0413465	1.51054	1.53254	0.0999999	0.0289822	-0.604797	-0.58693	0.443419	1.3226	1.51096	0.0999997	-0.0276507
4.25	-0.424317	0.0344265	-0.0827901	0.700908	0.944277	-0.339351	0.425287	-0.0728776	-0.219955	-0.735939	0.633344	0.0999995	0.0182342	1.20282	-0.0816565	-0.059148	-2.10817	0.231585	0.0999997	0.0688765	0.192836	0.0664734	0.08574	0.0475882	-0.417617	0.0290478	1.55727	1.53654	0.0999999	0.0289822	-0.661444	-0.598617	0.423943	1.36362	1.49723	0.0999997	-0.0276507
4.26	-0.424054	0.0517527	-0.0764573	0.705153	0.95195	-0.339443	0.351609	-0.0959626	-0.229692	-0.680473	0.535179	0.0999995	0.0182342	1.23515	-0.0657256	-0.0785407	-2.01364	0.246082	0.0999997	0.0688765	0.205688	0.0373418	0.106411	0.0408037	-0.40945	0.0184278	1.60488	1.53492	0.0999999	0.0289822	-0.719657	-0.606999	0.394901	1.40787	1.4843	0.0999997	-0.0276507
4.27	-0.424173	0.0661597	-0.0716847	0.70957	0.959616	-0.339401	0.283993	-0.114735	-0.239128	-0.631054	0.427682	0.0999995	0.0182342	1.25756	-0.0550674	-0.0999719	-1.90827	0.260949	0.0999997	0.0688765	0.218493	0.011492	0.127066	0.0306691	-0.402789	0.0101099	1.65125	1.52808	0.0999999	0.0289822	-0.777327	-0.611335	0.357818	1.45261	1.47177	0.0999997	-0.0276507
4.28	-0.424733	0.0770949	-0.0679317	0.713872	0.966938	-0.339299	0.224306	-0.129072	-0.248036	-0.592561	0.319463	0.0999995	0.0182342	1.27051	-0.0485743	-0.122302	-1.79299	0.276223	0.0999997	0.0688765	0.2308	-0.0102054	0.146596	0.0185898	-0.397526	0.00425964	1.69438	1.51753	0.0999999	0.0289822	-0.832149	-0.611335	0.315191	1.49555	1.4588	0.0999997	-0.0276507
4.29	-0.42563	0.0843385	-0.0644314	0.717843	0.973678	-0.339259	0.173681	-0.139325	-0.256391	-0.569154	0.219239	0.0999995	0.0182342	1.27431	-0.0445568	-0.144826	-1.66839	0.291939	0.0999997	0.0688765	0.242141	-0.0272762	0.163759	0.00568105	-0.393437	0.000630131	1.73239	1.50574	0.0999999	0.0289822	-0.881787	-0.607193	0.270173	1.53489	1.44449	0.0999997	-0.0276507
4.3	-0.426677	0.0878969	-0.0603695	0.72137	0.979699	-0.339417	0.132604	-0.146052	-0.264219	-0.563887	0.134374	0.0999995	0.0182342	1.26923	-0.0411899	-0.167196	-1.53501	0.30797	0.0999997	0.0688765	0.252101	-0.0395646	0.177395	-0.00731064	-0.39022	-0.00131904	1.76365	1.49561	0.0999999	0.0289822	-0.924069	-0.599573	0.226138	1.56934	1.42824	0.0999997	-0.0276507
